<svg width="14" height="14" viewBox="0 0 14 14" fill="none" xmlns="http://www.w3.org/2000/svg">
<path d="M7.00065 0.833374C3.31732 0.833374 0.333985 3.81671 0.333985 7.50004C0.333183 8.89948 0.773051 10.2636 1.59119 11.399C2.40933 12.5344 3.56421 13.3833 4.89199 13.8254C5.22532 13.8834 5.35065 13.6834 5.35065 13.508C5.35065 13.35 5.34199 12.8254 5.34199 12.2667C3.66732 12.5754 3.23399 11.8587 3.10065 11.4834C3.02532 11.2914 2.70065 10.7 2.41732 10.5414C2.18399 10.4167 1.85065 10.108 2.40865 10.1C2.93399 10.0914 3.30865 10.5834 3.43399 10.7834C4.03399 11.7914 4.99199 11.508 5.37532 11.3334C5.43399 10.9 5.60865 10.6087 5.80065 10.442C4.31732 10.2754 2.76732 9.70004 2.76732 7.15004C2.76732 6.42471 3.02532 5.82537 3.45065 5.35871C3.38399 5.19204 3.15065 4.50871 3.51732 3.59204C3.51732 3.59204 4.07532 3.41671 5.35065 4.27471C5.89339 4.12431 6.45413 4.04872 7.01732 4.05004C7.58399 4.05004 8.15065 4.12471 8.68399 4.27471C9.95932 3.40804 10.5173 3.59204 10.5173 3.59204C10.884 4.50871 10.6507 5.19204 10.584 5.35871C11.0087 5.82537 11.2673 6.41671 11.2673 7.15004C11.2673 9.70871 9.70932 10.2754 8.22599 10.442C8.46732 10.65 8.67599 11.05 8.67599 11.6754C8.67599 12.5667 8.66732 13.2834 8.66732 13.5087C8.66732 13.6834 8.79265 13.8914 9.12599 13.8247C10.4492 13.3778 11.599 12.5272 12.4135 11.3927C13.2281 10.2581 13.6663 8.8967 13.6667 7.50004C13.6667 3.81671 10.6833 0.833374 6.99999 0.833374" fill="#EA1D2C"/>
</svg>
