<svg width="14" height="15" viewBox="0 0 14 15" fill="none" xmlns="http://www.w3.org/2000/svg">
<path d="M1.04332 4.50671C1.59799 3.4022 2.4489 2.47372 3.50094 1.82502C4.55298 1.17633 5.76469 0.832985 7.00065 0.833374C8.79732 0.833374 10.3067 1.49404 11.4607 2.57004L9.54932 4.48204C8.85798 3.82137 7.97932 3.48471 7.00065 3.48471C5.26398 3.48471 3.79398 4.65804 3.27065 6.23338C3.13732 6.63338 3.06132 7.06004 3.06132 7.50004C3.06132 7.94004 3.13732 8.36671 3.27065 8.76671C3.79465 10.3427 5.26398 11.5154 7.00065 11.5154C7.89732 11.5154 8.66065 11.2787 9.25798 10.8787C9.60428 10.6507 9.90074 10.3549 10.1295 10.009C10.3582 9.66322 10.5144 9.27461 10.5887 8.86671H7.00065V6.28804H13.2793C13.358 6.72404 13.4007 7.17871 13.4007 7.65137C13.4007 9.68204 12.674 11.3914 11.4127 12.5514C10.31 13.57 8.80065 14.1667 7.00065 14.1667C6.12507 14.1671 5.25801 13.9949 4.44901 13.66C3.64002 13.325 2.90495 12.834 2.28582 12.2149C1.6667 11.5957 1.17565 10.8607 0.840741 10.0517C0.505834 9.24268 0.333634 8.37562 0.333985 7.50004C0.333985 6.42404 0.591318 5.40671 1.04332 4.50671Z" fill="#EA1D2C"/>
</svg>
